{"title":"Disclosure ft.Sam Smith - Omen (2015.Electronic)","uid":12181313,"size":93509567,"categoryP":"video","categoryS":"music_videos","magnet":"?xt=urn:btih:b9c76d0288ee60425b920c7e5f61cc297cc115c8&amp;dn=Disclosure+ft.Sam+Smith+-+Omen+%282015.Electronic%29&amp;tr=udp%3A%2F%2Ftracker.openbittorrent.com%3A80&amp;tr=udp%3A%2F%2Fopen.demonii.com%3A1337&amp;tr=udp%3A%2F%2Ftracker.coppersurfer.tk%3A6969&amp;tr=udp%3A%2F%2Fexodus.desync.com%3A6969","seeders":1,"leechers":0,"uploader":"MeRaDil","files":1,"time":1438451825,"description":"DISCLOSURE ft.SAM SMITH - OMEN\n\n &lt;a href=&quot;\nhttp://gifyu.com/images/omen.png&quot; rel=&quot;nofollow&quot; target=&quot;_NEW&quot;&gt;\nhttp://gifyu.com/images/omen.png&lt;/a&gt;\n &lt;a href=&quot;\nhttp://gifyu.com/images/omen1.png&quot; rel=&quot;nofollow&quot; target=&quot;_NEW&quot;&gt;\nhttp://gifyu.com/images/omen1.png&lt;/a&gt;\n\n\nGeneral\nDisclosure ft. Sam Smith - Omen\nFormat                                   : MPEG-4\nFormat profile                           : Base Media\nCodec ID                                 : isom\nFile size                                : 89.2 MiB\nDuration                                 : 3mn 59s\nOverall bit rate                         : 3 120 Kbps\nMusicVideo name                          : Omen\nAlbum                                    : Caracal\nPerformer                                : Disclosure ft. Sam Smith\nGenre                                    : Electronic\nContentType                              : Music Video\nRecorded date                            : 2015\nCover                                    : Yes\nRating                                   : ***\nMake                                     : MeRaDil\nRelease                                  : UK - july 27 - 2015\n\nVideo\nID                                       : 1\nFormat                                   : AVC\nFormat/Info                              : Advanced Video Codec\nFormat profile                           : &lt;a class=&quot;__cf_email__&quot; href=&quot;/cdn-cgi/l/email-protection&quot; data-cfemail=&quot;357d5c525d7579011b05&quot;&gt;[email&amp;#160;protected]&lt;/a&gt;&lt;script data-cfhash='f9e31' type=&quot;text/javascript&quot;&gt;\n/* &lt;![CDATA[ */!function(){try{var t=&quot;currentScript&quot;in document?document.currentScript:function(){for(var t=document.getElementsByTagName(&quot;script&quot;),e=t.length;e--;)if(t[e].getAttribute(&quot;data-cfhash&quot;))return t[e]}();if(t&amp;&amp;t.previousSibling){var e,r,n,i,c=t.previousSibling,a=c.getAttribute(&quot;data-cfemail&quot;);if(a){for(e=&quot;&quot;,r=parseInt(a.substr(0,2),16),n=2;a.length-n;n+=2)i=parseInt(a.substr(n,2),16)^r,e+=String.fromCharCode(i);e=document.createTextNode(e),c.parentNode.replaceChild(e,c)}t.parentNode.removeChild(t);}}catch(u){}}()/* ]]&gt; */&lt;/script&gt;\nFormat settings, CABAC                   : Yes\nFormat settings, ReFrames                : 2 frames\nCodec ID                                 : avc1\nCodec ID/Info                            : Advanced Video Coding\nDuration                                 : 3mn 59s\nBit rate                                 : 2 858 Kbps\nWidth                                    : 1 920 pixels\nHeight                                   : 1 080 pixels\nDisplay aspect ratio                     : 16:9\nFrame rate mode                          : Constant\nFrame rate                               : 25.000 fps\nColor space                              : YUV\nChroma subsampling                       : 4:2:0\nBit depth                                : 8 bits\nScan type                                : Progressive\nBits/(Pixel*Frame)                       : 0.055\nStream size                              : 81.6 MiB (92%)\n\nAudio\nID                                       : 2\nFormat                                   : AAC\nFormat/Info                              : Advanced Audio Codec\nFormat profile                           : LC\nCodec ID                                 : 40\nDuration                                 : 3mn 59s\nBit rate mode                            : Constant\nBit rate                                 : 256 Kbps\nChannel(s)                               : 2 channels\nChannel positions                        : Front: L R\nSampling rate                            : 44.1 KHz\nCompression mode                         : Lossy\nStream size                              : 7.32 MiB (8%)\n &lt;a href=&quot;\nhttps://thepiratebay.se/user/MeRaDil&quot; rel=&quot;nofollow&quot; target=&quot;_NEW&quot;&gt;\nhttps://thepiratebay.se/user/MeRaDil&lt;/a&gt;\n\nDisclosure * Sam Smith * Electronic * Promo","torrent":{"xt":"urn:btih:b9c76d0288ee60425b920c7e5f61cc297cc115c8","amp;dn":"Disclosure+ft.Sam+Smith+-+Omen+%282015.Electronic%29","amp;tr":["udp%3A%2F%2Ftracker.openbittorrent.com%3A80","udp%3A%2F%2Fopen.demonii.com%3A1337","udp%3A%2F%2Ftracker.coppersurfer.tk%3A6969","udp%3A%2F%2Fexodus.desync.com%3A6969"],"infoHash":"b9c76d0288ee60425b920c7e5f61cc297cc115c8","infoHashBuffer":{"type":"Buffer","data":[185,199,109,2,136,238,96,66,91,146,12,126,95,97,204,41,124,193,21,200]},"announce":[],"urlList":[]}}